<?xml version="1.0" standalone="no"?>
<!DOCTYPE svg PUBLIC "-//W3C//DTD SVG 20010904//EN"
 "http://www.w3.org/TR/2001/REC-SVG-20010904/DTD/svg10.dtd">
<svg version="1.0" xmlns="http://www.w3.org/2000/svg"
 width="1849.000000pt" height="511.000000pt" viewBox="0 0 1849.000000 511.000000"
 preserveAspectRatio="xMidYMid meet">
<metadata>
Created by potrace 1.16, written by Peter Selinger 2001-2019
</metadata>
<g transform="translate(0.000000,511.000000) scale(0.100000,-0.100000)"
fill="#000000" stroke="none">
<path d="M790 4896 c-105 -58 -550 -328 -567 -344 l-23 -21 0 -2135 0 -2135
24 -28 24 -28 264 -3 c274 -3 312 -1 344 22 19 14 19 47 24 1408 l5 1394 26
40 c22 33 53 54 185 123 191 101 313 167 674 366 151 83 344 189 428 235 84
45 161 94 172 108 19 24 20 41 20 401 0 325 -2 380 -16 399 -8 12 -22 22 -30
22 -13 0 -116 -56 -483 -263 -79 -44 -81 -52 -81 -343 l0 -247 -33 -31 c-21
-19 -71 -45 -133 -68 -360 -134 -535 -197 -572 -208 -53 -14 -98 -2 -133 36
l-24 26 -3 631 c-2 578 -4 633 -19 645 -22 16 -42 15 -73 -2z M10855 4248 c-3
-7 -4 -692 -3 -1523 l3 -1510 125 -3 c69 -1 135 0 148 3 l22 5 0 1385 0 1385
760 0 760 0 0 135 0 135 -905 0 c-715 0 -907 -3 -910 -12z M5846 4242 c-8 -13
-9 -3009 -1 -3022 3 -5 39 -10 80 -10 68 0 77 3 117 33 85 65 78 -73 78 1490
0 1187 -2 1393 -14 1422 -10 22 -32 46 -62 65 -42 26 -57 30 -120 30 -40 0
-75 -4 -78 -8z M13255 4224 c-21 -14 -46 -35 -56 -47 -18 -21 -18 -85 -19
-1495 l0 -1473 138 3 137 3 3 1518 2 1517 -84 0 c-73 0 -88 -3 -121 -26z
M7086 4135 c-48 -30 -91 -55 -95 -55 -4 0 -20 -14 -36 -30 -28 -29 -30 -36
-33 -128 -1 -53 1 -133 5 -177 7 -72 10 -80 30 -83 31 -5 236 120 251 153 8
16 12 84 12 185 0 131 -3 161 -16 174 -8 9 -19 16 -23 16 -4 0 -46 -25 -95
-55z M2260 3617 c-42 -23 -160 -89 -264 -146 -137 -77 -191 -112 -202 -132
-19 -38 -21 -890 -1 -929 22 -45 52 -37 197 51 74 45 155 93 180 107 107 59
198 124 208 147 9 19 12 152 12 463 0 380 -2 440 -16 460 -8 12 -21 22 -27 22
-7 0 -46 -20 -87 -43z M8905 3463 c-127 -15 -301 -66 -405 -118 -285 -144
-503 -419 -583 -735 -28 -112 -31 -404 -4 -515 57 -243 161 -431 329 -595 308
-302 789 -401 1189 -244 341 132 578 397 685 764 60 207 59 421 -2 637 -121
424 -484 742 -918 802 -73 10 -223 12 -291 4z m334 -294 c414 -106 688 -516
632 -944 -29 -219 -120 -398 -277 -544 -249 -233 -635 -286 -946 -130 -285
143 -462 423 -473 749 -13 352 159 647 465 800 195 97 398 120 599 69z M4045
3439 c-354 -37 -674 -260 -833 -580 -87 -175 -121 -325 -122 -535 -1 -459 223
-838 607 -1028 469 -233 1045 -100 1334 308 50 70 53 86 18 86 -38 0 -95 32
-145 81 l-51 51 -46 -60 c-111 -144 -251 -238 -422 -283 -114 -30 -299 -30
-410 0 -277 75 -470 264 -558 546 -14 44 -28 106 -32 138 l-7 57 28 0 c16 0
425 1 909 3 l880 2 3 112 c8 316 -103 611 -307 814 -169 168 -372 264 -612
289 -111 11 -119 11 -234 -1z m360 -292 c202 -66 369 -223 448 -420 28 -70 61
-213 52 -228 -4 -5 -299 -9 -756 -9 -596 0 -751 3 -754 13 -16 40 65 250 134
351 101 147 287 270 466 310 110 24 307 16 410 -17z M6943 3403 c-10 -4 -13
-223 -13 -1048 l0 -1044 31 -36 c47 -53 77 -65 163 -65 65 0 77 3 86 20 7 13
10 343 8 1054 l-3 1034 -25 28 c-40 42 -96 64 -170 63 -36 0 -71 -3 -77 -6z
M14087 3403 c-4 -4 -7 -315 -6 -692 1 -738 4 -783 54 -936 49 -148 118 -259
221 -355 190 -177 469 -262 752 -231 347 39 617 247 722 555 55 161 55 163 55
941 l0 720 -132 3 -133 3 0 -663 c0 -365 -5 -706 -10 -758 -23 -230 -119 -378
-305 -469 -97 -48 -175 -64 -305 -64 -334 1 -545 155 -626 458 -18 64 -19 116
-19 660 -1 325 -2 645 -3 713 l-2 122 -128 0 c-71 0 -132 -3 -135 -7z M16410
3404 c0 -3 50 -74 111 -157 150 -203 201 -275 326 -452 59 -82 155 -218 215
-302 59 -84 108 -155 108 -158 0 -7 -91 -135 -219 -310 -233 -318 -571 -795
-571 -807 0 -4 69 -8 153 -8 l153 0 139 200 c77 111 194 277 260 370 66 93
145 206 175 250 30 45 82 119 115 165 33 46 141 198 240 337 99 139 255 356
347 483 92 126 191 263 220 303 29 40 55 77 56 83 2 5 -58 9 -151 9 l-155 0
-168 -237 c-92 -131 -226 -322 -298 -425 l-131 -188 -19 23 c-10 12 -88 119
-172 237 -85 118 -214 298 -287 400 l-133 185 -157 3 c-86 1 -157 0 -157 -4z
M11328 2862 c-14 -3 -17 -22 -20 -123 -2 -67 1 -127 5 -135 7 -12 98 -14 597
-14 323 0 595 3 604 6 13 5 16 27 16 135 l0 129 -37 1 c-153 2 -1153 3 -1165
1z M2135 2354 c-105 -64 -217 -131 -250 -149 -111 -61 -100 48 -103 -1016 l-2
-930 29 -30 c27 -27 35 -29 103 -29 40 1 89 7 108 14 67 23 346 204 358 231 9
19 12 276 12 1009 0 940 -1 984 -18 999 -10 10 -25 17 -33 17 -8 0 -100 -52
-204 -116z M17501 2114 c-39 -53 -71 -102 -71 -110 0 -7 26 -50 58 -94 31 -43
84 -118 117 -165 33 -47 87 -123 120 -169 33 -46 87 -123 120 -171 33 -47 77
-111 98 -140 l39 -55 154 0 c85 0 154 2 154 5 0 9 -263 387 -442 635 -188 259
-263 360 -269 360 -4 0 -39 -43 -78 -96z"/>
</g>
</svg>
