<svg id="Layer_1" data-name="Layer 1" xmlns="http://www.w3.org/2000/svg" viewBox="0 0 808.92 48.05"><defs><style>.cls-1{fill:#FFFFFF;}</style></defs><g id="Group_92" data-name="Group 92"><g id="Group_91" data-name="Group 91"><g id="Group_76" data-name="Group 76"><path id="Path_365" data-name="Path 365" class="cls-1" d="M45.63,52.71H10.76v-1h1.51c3.79,0,4.73-1.07,4.73-5.11l.06-33.74c0-3.84-1.51-5.48-5.1-5.48H10.63V6.48H30.18v.95H28.73c-3.72,0-5,1.51-5,5.86V48.36c0,1.38.56,1.76,1.82,1.76H35.92c5.1,0,8.89-1.32,12.67-9.39l.7.19Z" transform="translate(-10.63 -5.54)"></path></g><g id="Group_77" data-name="Group 77"><path id="Path_366" data-name="Path 366" class="cls-1" d="M68.24,53.5c-10,0-17.95-7.25-17.95-18.54s7.74-19,17.95-19,17.94,7.79,17.94,19S78.64,53.5,68.24,53.5Zm0-35.95c-7.55,0-12.13,6.61-12.13,17.4,0,9.91,4.73,16.86,12.13,16.86s12.12-7,12.12-16.86c0-10.79-4.68-17.4-12.12-17.4Z" transform="translate(-10.63 -5.54)"></path><path id="Path_367" data-name="Path 367" class="cls-1" d="M99.19,53.5c-4.63,0-6.8-1.92-8.72-1.92-1.09,0-1.68.49-2.13,1.92h-.68V41.32h.68c1,6.06,5.13,10.3,10,10.3,4.1,0,7-2.66,7-6.46,0-3.5-2.52-5.22-5.38-7a78.11,78.11,0,0,1-9.46-6.6,9.41,9.41,0,0,1-2.77-6.41c0-5.27,4.39-9.21,10.16-9.21,3.55,0,6.41,1.67,7.64,1.67.74,0,1.43-1.72,1.43-1.72h.69V27.81h-.69c-.64-6.45-3.89-10.1-9-10.1-3.65,0-6,2.22-6,5.57,0,3.2,2.07,5,6.85,7.79a68.61,68.61,0,0,1,8,5.18c2.16,1.92,3.15,4,3.2,7.49C110,49.7,105.65,53.5,99.19,53.5Z" transform="translate(-10.63 -5.54)"></path></g><g id="Group_78" data-name="Group 78"><path id="Path_368" data-name="Path 368" class="cls-1" d="M149.23,52.71v-1c4,0,5.67-1.07,3.72-6.5-.89-2.52-3.15-8.38-3.15-8.38H133.46s-3.34,7.94-3.72,8.82c-1.89,4.54-1.45,6.12,3.72,6.06v.94H120.79l.06-.88c2.33-.38,3.85-1.32,6.18-6.75,1.9-4.41,11.8-27.11,16.34-39,.12-.38.32-.5.5-.5a.73.73,0,0,1,.56.5C146.77,11.09,159.88,45,161,47.47c1.38,3.22,2.14,4.23,5.61,4.29v.94Zm-6.81-34.94c-.06-.25-.32-.5-.44-.5s-.38.32-.45.5c-2.83,6.69-7.25,16.84-7.25,16.84h14.64s-3.79-9.9-6.5-16.84Z" transform="translate(-10.63 -5.54)"></path></g><g id="Group_79" data-name="Group 79"><path id="Path_369" data-name="Path 369" class="cls-1" d="M201.5,17.31c-2.47,0-3.8,1-3.8,4V47.58c0,1.38.05,4.14.15,5.57h-.44c-1.33-2.07-3.2-4.53-4.29-5.92l-18.93-24.3V46.69c0,4.88.88,5.28,4.88,5.28v.74H167V52h1.08c3.11,0,3.94-1.19,3.94-5.33V20.17s-1.82-2.86-4.63-2.86h-1.18v-.74h9.12l20.21,26.08V21.3c0-2.85-.94-4-3.3-4H190.7v-.74h12.08v.74Z" transform="translate(-10.63 -5.54)"></path><path id="Path_370" data-name="Path 370" class="cls-1" d="M235.61,33.82c-1.77,0-2.61,1-2.61,3.31V49.7a26.86,26.86,0,0,1-13.7,3.75c-11.24,0-18.74-7.45-18.74-18.64,0-11,7.75-18.93,18.44-18.93,5.23,0,8.63,2.32,10.11,2.32,1.08,0,1.43-.54,1.67-2.42h.69l1.09,11.34H232c-2.56-6.61-7.3-9.56-12.82-9.56-8.13,0-12.77,6.16-12.77,17,0,10.56,5.23,16.82,14,16.82a13.4,13.4,0,0,0,7.4-2V37.23c0-2.27-1.08-3.4-3.15-3.4h-1v-.69h13v.68Z" transform="translate(-10.63 -5.54)"></path></g><g id="Group_80" data-name="Group 80"><path id="Path_371" data-name="Path 371" class="cls-1" d="M262.71,52.71H234.76V52h.84c3.45,0,4.29-1,4.29-4.93V21c0-2.81-1.09-3.65-4.19-3.65h-.94v-.74H262l.45,7.94h-.69c-.55-4.59-2.37-6.21-7-6.21h-8.53c-.93,0-1.23.29-1.23,1.42V32.79h9c3.35,0,4.58-1.43,4.78-5.52h.44V39.94h-.44c-.25-2.91-.49-5.42-4.69-5.42h-9.07V49c0,1.48.4,1.92,1.63,1.92h7.84c5.77,0,8.43-2.07,10.16-7.2h.69Z" transform="translate(-10.63 -5.54)"></path><path id="Path_372" data-name="Path 372" class="cls-1" d="M292.14,52.71H264.88V52h1.18c3,0,3.7-.84,3.7-4l.05-26.38c0-3-1.18-4.29-4-4.29h-1v-.74h15.29v.74h-1.14c-2.9,0-3.9,1.18-3.9,4.58V49.31c0,1.08.45,1.38,1.43,1.38h8.09c4,0,6.95-1,9.91-7.35l.54.15Z" transform="translate(-10.63 -5.54)"></path><path id="Path_373" data-name="Path 373" class="cls-1" d="M322.07,52.71H294.12V52H295c3.45,0,4.29-1,4.29-4.93V21c0-2.81-1.08-3.65-4.19-3.65h-.93v-.74h27.26l.44,7.94h-.69c-.54-4.59-2.37-6.21-6.95-6.21h-8.53c-.94,0-1.23.29-1.23,1.42V32.79h9c3.35,0,4.59-1.43,4.78-5.52h.45V39.94h-.45c-.24-2.91-.49-5.42-4.68-5.42h-9.07V49c0,1.48.39,1.92,1.63,1.92h7.83c5.77,0,8.44-2.07,10.16-7.2h.69Z" transform="translate(-10.63 -5.54)"></path></g><g id="Group_81" data-name="Group 81"><path id="Path_374" data-name="Path 374" class="cls-1" d="M337.3,53.5c-4.63,0-6.8-1.92-8.72-1.92-1.09,0-1.68.49-2.13,1.92h-.68V41.32h.68c1,6.06,5.13,10.3,10,10.3,4.1,0,7-2.66,7-6.46,0-3.5-2.52-5.22-5.38-7a78.11,78.11,0,0,1-9.46-6.6,9.41,9.41,0,0,1-2.77-6.41c0-5.27,4.4-9.21,10.16-9.21,3.56,0,6.41,1.67,7.65,1.67.73,0,1.42-1.72,1.42-1.72h.69V27.81H345c-.64-6.45-3.89-10.1-9-10.1-3.65,0-6,2.22-6,5.57,0,3.2,2.07,5,6.85,7.79a66.11,66.11,0,0,1,8,5.18c2.16,1.92,3.15,4,3.2,7.49C348.15,49.7,343.76,53.5,337.3,53.5Z" transform="translate(-10.63 -5.54)"></path></g><g id="Group_82" data-name="Group 82"><path id="Path_375" data-name="Path 375" class="cls-1" d="M379.58,52.71h-20v-1h1.64c3.47,0,4.67-1.64,4.67-6.43V12.41c0-3.91-1.14-5-5.3-5h-1.13V6.48H376c12.74,0,18.41,5.93,18.41,12.11,0,5.42-2.33,8-7.81,10.47,6.68,1.89,9.89,5.54,9.83,11.22C396.35,48,390.48,52.71,379.58,52.71ZM376.11,8.76h-2.65c-.63,0-.88.37-.88,1.07V28h3.78c7.63,0,11.23-3.15,11.23-9.78C387.58,12,383.67,8.76,376.11,8.76ZM376.67,30h-4.1V49.68c0,.76.38,1,1.26,1h3.72c7.38,0,11.48-3.78,11.48-10.59,0-6.63-4.22-10.1-12.36-10.1Z" transform="translate(-10.63 -5.54)"></path></g><g id="Group_83" data-name="Group 83"><path id="Path_376" data-name="Path 376" class="cls-1" d="M431.64,17.31c-2.47,0-3.35,1.18-3.35,4.34V40c0,9.17-4.24,13.41-13.46,13.41C407.58,53.45,402,50.15,402,42V21.5c0-3.06-1.08-4.19-4-4.19H397v-.75h15.14v.75H411c-2.71,0-3.7,1.13-3.7,4V42.75c0,7.29,5.34,8.67,9.08,8.67,4.73,0,9.81-2.76,9.81-10.35l-.05-19.47c0-3.16-.94-4.29-3.55-4.29h-1.38v-.75h12v.75Z" transform="translate(-10.63 -5.54)"></path><path id="Path_377" data-name="Path 377" class="cls-1" d="M443.17,53.5c-4.63,0-6.8-1.92-8.72-1.92-1.08,0-1.68.49-2.12,1.92h-.69V41.32h.69c1,6.06,5.13,10.3,10,10.3,4.09,0,7-2.66,7-6.46,0-3.5-2.51-5.22-5.37-7a78.22,78.22,0,0,1-9.47-6.6,9.42,9.42,0,0,1-2.76-6.41c0-5.27,4.39-9.21,10.16-9.21,3.55,0,6.41,1.67,7.64,1.67.74,0,1.43-1.72,1.43-1.72h.69V27.81h-.69c-.64-6.45-3.9-10.1-9-10.1-3.65,0-6,2.22-6,5.57,0,3.2,2.07,5,6.86,7.79a66,66,0,0,1,8,5.18c2.17,1.92,3.16,4,3.21,7.49C454,49.7,449.64,53.5,443.17,53.5Z" transform="translate(-10.63 -5.54)"></path></g><g id="Group_84" data-name="Group 84"><path id="Path_378" data-name="Path 378" class="cls-1" d="M454.8,52.71V52h.64c3.15,0,4.29-.84,4.29-4.93V21.75c0-3.4-1-4.44-4.44-4.44h-.59v-.74H470v.74h-.68c-3.56,0-4.34.93-4.34,4.39V46.94c0,4.19,1.13,5,4.28,5H470v.74Z" transform="translate(-10.63 -5.54)"></path><path id="Path_379" data-name="Path 379" class="cls-1" d="M505.63,17.31c-2.47,0-3.8,1-3.8,4V47.58c0,1.38.05,4.14.15,5.57h-.44c-1.33-2.07-3.2-4.53-4.29-5.92l-18.93-24.3V46.69c0,4.88.88,5.28,4.88,5.28v.74h-12V52h1.08c3.1,0,3.95-1.19,3.95-5.33V20.17s-1.83-2.86-4.64-2.86h-1.18v-.74h9.11l20.22,26.08V21.3c0-2.85-.94-4-3.3-4h-1.58v-.74h12.08v.74Z" transform="translate(-10.63 -5.54)"></path></g><g id="Group_85" data-name="Group 85"><path id="Path_380" data-name="Path 380" class="cls-1" d="M534.41,52.71H506.46V52h.83c3.45,0,4.29-1,4.29-4.93V21c0-2.81-1.08-3.65-4.19-3.65h-.93v-.75h27.26l.44,8h-.7c-.54-4.59-2.36-6.22-7-6.22H518c-.93,0-1.23.3-1.23,1.43V32.79h9c3.35,0,4.58-1.43,4.78-5.52H531V39.94h-.45c-.25-2.91-.5-5.43-4.68-5.43h-9.08V49c0,1.47.4,1.92,1.63,1.92h7.84c5.77,0,8.43-2.07,10.15-7.2h.7Z" transform="translate(-10.63 -5.54)"></path><path id="Path_381" data-name="Path 381" class="cls-1" d="M549.64,53.5c-4.63,0-6.8-1.92-8.72-1.92-1.09,0-1.68.49-2.12,1.92h-.69V41.32h.69c1,6.06,5.12,10.3,10,10.3,4.1,0,7-2.66,7-6.46,0-3.5-2.51-5.22-5.37-7a78.11,78.11,0,0,1-9.46-6.6,9.36,9.36,0,0,1-2.76-6.41c0-5.27,4.38-9.21,10.15-9.21,3.55,0,6.41,1.67,7.64,1.67.74,0,1.43-1.72,1.43-1.72h.69V27.81h-.69c-.64-6.45-3.9-10.1-9-10.1-3.65,0-6,2.22-6,5.57,0,3.2,2.06,5,6.85,7.79a65.22,65.22,0,0,1,8,5.18c2.17,1.92,3.16,4,3.21,7.49C560.49,49.7,556.1,53.5,549.64,53.5Z" transform="translate(-10.63 -5.54)"></path></g><g id="Group_86" data-name="Group 86"><path id="Path_382" data-name="Path 382" class="cls-1" d="M573.84,53.5c-4.64,0-6.8-1.92-8.73-1.92-1.08,0-1.67.49-2.11,1.92h-.7V41.32h.7c1,6.06,5.12,10.3,10,10.3,4.09,0,7-2.66,7-6.46,0-3.5-2.51-5.22-5.37-7a79,79,0,0,1-9.47-6.6,9.35,9.35,0,0,1-2.75-6.41c0-5.27,4.38-9.21,10.15-9.21,3.55,0,6.41,1.67,7.64,1.67.74,0,1.43-1.72,1.43-1.72h.69V27.81h-.69c-.64-6.45-3.9-10.1-9-10.1-3.65,0-6,2.22-6,5.57,0,3.2,2.07,5,6.85,7.79a64.58,64.58,0,0,1,8,5.18c2.17,1.92,3.16,4,3.21,7.49C584.69,49.7,580.3,53.5,573.84,53.5Z" transform="translate(-10.63 -5.54)"></path></g><g id="Group_87" data-name="Group 87"><path id="Path_383" data-name="Path 383" class="cls-1" d="M621.38,7.43c-4.16,0-5.17,1.26-5.17,5.36v27c0,8.39-4.73,13.81-12,13.81-4.47,0-7.94-2.4-7.94-5.55a2.73,2.73,0,0,1,2.62-2.84h.28c2.65,0,3.65,2.34,4.66,4,.63,1.07,1.2,2.21,2.72,2.21,2,0,2.9-1.71,2.9-5.87V12.79c0-3.84-1.39-5.36-5.3-5.36h-1.27V6.48h19.55v.95Z" transform="translate(-10.63 -5.54)"></path></g><g id="Group_88" data-name="Group 88"><path id="Path_384" data-name="Path 384" class="cls-1" d="M637.16,53.5c-10,0-17.94-7.25-17.94-18.54s7.73-19,17.94-19,18,7.79,18,19S647.57,53.5,637.16,53.5Zm0-35.94c-7.54,0-12.13,6.6-12.13,17.4,0,9.91,4.74,16.86,12.13,16.86s12.13-7,12.13-16.86c0-10.8-4.68-17.4-12.13-17.4Z" transform="translate(-10.63 -5.54)"></path><path id="Path_385" data-name="Path 385" class="cls-1" d="M687.79,17.31c-2.46,0-3.35,1.18-3.35,4.34V40c0,9.17-4.24,13.41-13.46,13.41-7.25,0-12.82-3.3-12.82-11.49V21.5c0-3.05-1.08-4.19-4-4.19h-.94v-.74h15.14v.74h-1.18c-2.72,0-3.7,1.13-3.7,4V42.75c0,7.29,5.32,8.67,9.07,8.67,4.73,0,9.8-2.76,9.8-10.35l0-19.47c0-3.16-.94-4.29-3.56-4.29h-1.37v-.74h12v.74Z" transform="translate(-10.63 -5.54)"></path></g><g id="Group_89" data-name="Group 89"><path id="Path_386" data-name="Path 386" class="cls-1" d="M714.79,52.71,702.47,35.65h-3.1V48.42c0,2.61,1,3.55,3.94,3.55h1v.74H689V52h1.38C693,52,694,50.84,694,47.73V21.3c0-2.95-.89-4-3.65-4H689.1v-.74h13.66c9.07,0,14,3.3,14,9.22,0,4.58-3.06,7.88-8.87,9.56l9.52,13.22c1.87,2.56,3.06,3.4,4.83,3.4H723v.74ZM702.47,18.05c-2.36,0-3.1.59-3.1,3.15V34.07h3.15c5.28-.2,8.78-3.4,8.78-8,0-4.89-3.46-8-8.83-8Z" transform="translate(-10.63 -5.54)"></path><path id="Path_387" data-name="Path 387" class="cls-1" d="M756.45,17.31c-2.46,0-3.79,1-3.79,4V47.58c0,1.38.05,4.14.15,5.57h-.45c-1.33-2.07-3.2-4.53-4.29-5.92l-18.93-24.3V46.69c0,4.88.89,5.28,4.88,5.28v.74H722V52h1.08c3.1,0,3.94-1.19,3.94-5.33V20.17s-1.82-2.86-4.63-2.86H721.2v-.74h9.12l20.22,26.08V21.3c0-2.85-.94-4-3.31-4h-1.57v-.74h12.07v.74Z" transform="translate(-10.63 -5.54)"></path></g><g id="Group_90" data-name="Group 90"><path id="Path_388" data-name="Path 388" class="cls-1" d="M775.87,52.71V52c3.15,0,4.43-.84,2.9-5.08-.68-2-2.46-6.55-2.46-6.55H763.54s-2.61,6.2-2.91,6.9c-1.48,3.54-1.13,4.78,2.91,4.73v.74h-9.91l0-.69c1.83-.3,3-1,4.84-5.27,1.47-3.46,9.21-21.2,12.77-30.52.1-.3.24-.4.39-.4a.56.56,0,0,1,.44.4C774,20.17,784.2,46.65,785,48.62c1.09,2.51,1.68,3.3,4.39,3.35v.74Zm-5.33-27.32c0-.19-.25-.39-.34-.39s-.3.25-.35.39c-2.22,5.23-5.67,13.17-5.67,13.17h11.44s-3-7.74-5.08-13.17Z" transform="translate(-10.63 -5.54)"></path><path id="Path_389" data-name="Path 389" class="cls-1" d="M816.69,52.71H789.42V52h1.19c3,0,3.7-.84,3.7-4l.05-26.38c0-3-1.18-4.29-4-4.29h-1v-.74h15.27v.74h-1.13c-2.92,0-3.9,1.18-3.9,4.58V49.31c0,1.08.44,1.38,1.43,1.38h8.08c4,0,6.95-1,9.91-7.35l.54.15Z" transform="translate(-10.63 -5.54)"></path></g></g></g></svg>